<?xml version="1.0" encoding="utf-8"?>
<!-- Generator: Adobe Illustrator 23.1.0, SVG Export Plug-In . SVG Version: 6.00 Build 0)  -->
<svg version="1.1" id="Layer_1" xmlns="http://www.w3.org/2000/svg" xmlns:xlink="http://www.w3.org/1999/xlink" x="0px" y="0px"
	 viewBox="0 0 500 440" style="enable-background:new 0 0 500 440;" xml:space="preserve">
<style type="text/css">
	.st0{font-family:'ArialMT';}
	.st1{font-size:11px;}
	.st2{fill:none;stroke:#000000;stroke-width:2;stroke-linecap:square;}
	.st3{fill-opacity:0;stroke:#000000;stroke-width:2;stroke-linecap:square;}
	.st4{fill-opacity:0;stroke:#000000;stroke-width:2;}
	.st5{font-size:12px;}
	.st6{stroke:#000000;stroke-width:2;}
</style>
<text transform="matrix(1 0 0 1 400 320)" class="st0 st1">Water Pump</text>
<line class="st2" x1="210" y1="360" x2="210" y2="360"/>
<line class="st2" x1="210" y1="360" x2="210" y2="368"/>
<path class="st3" d="M202,368h16l-8,8L202,368"/>
<line class="st2" x1="210" y1="360" x2="230" y2="360"/>
<line class="st2" x1="230" y1="360" x2="230" y2="390"/>
<line class="st2" x1="170" y1="390" x2="300" y2="390"/>
<line class="st2" x1="190" y1="410" x2="300" y2="410"/>
<line class="st2" x1="190" y1="370" x2="190" y2="410"/>
<line class="st2" x1="170" y1="400" x2="240" y2="400"/>
<line class="st2" x1="190" y1="320" x2="190" y2="370"/>
<line class="st2" x1="150" y1="320" x2="190" y2="320"/>
<line class="st2" x1="180" y1="330" x2="180" y2="370"/>
<line class="st2" x1="30" y1="330" x2="180" y2="330"/>
<line class="st2" x1="30" y1="250" x2="30" y2="330"/>
<line class="st2" x1="40" y1="320" x2="150" y2="320"/>
<line class="st2" x1="40" y1="260" x2="40" y2="320"/>
<line class="st2" x1="170" y1="370" x2="180" y2="370"/>
<line class="st2" x1="40" y1="260" x2="50" y2="260"/>
<line class="st2" x1="250" y1="400" x2="300" y2="400"/>
<line class="st2" x1="250" y1="380" x2="250" y2="400"/>
<line class="st2" x1="240" y1="380" x2="240" y2="400"/>
<text transform="matrix(1 0 0 1 320 40)" class="st0 st1">Piezo Buzzer</text>
<text transform="matrix(1 0 0 1 311.9045 370)" class="st0 st1">Water Level Sensor</text>
<rect x="310" y="380" class="st4" width="100" height="40"/>
<line class="st2" x1="300" y1="390" x2="310" y2="390"/>
<text transform="matrix(1 0 0 1 314 390)" class="st0 st1">-</text>
<line class="st2" x1="300" y1="400" x2="310" y2="400"/>
<text transform="matrix(1 0 0 1 314 400)" class="st0 st1">+</text>
<line class="st2" x1="300" y1="410" x2="310" y2="410"/>
<text transform="matrix(1 0 0 1 314 410)" class="st0 st1">S</text>
<text transform="matrix(1 0 0 1 69.9558 350)" class="st0 st1">Moisture Sensor</text>
<rect x="60" y="360" class="st4" width="100" height="50"/>
<line class="st2" x1="160" y1="370" x2="170" y2="370"/>
<text transform="matrix(1 0 0 1 142.5454 370)" class="st0 st1">A0</text>
<line class="st2" x1="160" y1="380" x2="170" y2="380"/>
<text transform="matrix(1 0 0 1 141.9385 380)" class="st0 st1">D0</text>
<line class="st2" x1="160" y1="390" x2="170" y2="390"/>
<text transform="matrix(1 0 0 1 131.5562 390)" class="st0 st1">GND</text>
<line class="st2" x1="160" y1="400" x2="170" y2="400"/>
<text transform="matrix(1 0 0 1 132.7754 400)" class="st0 st1">VCC</text>
<line class="st2" x1="250" y1="190" x2="260" y2="190"/>
<line class="st2" x1="240" y1="180" x2="290" y2="180"/>
<line class="st2" x1="270" y1="290" x2="280" y2="290"/>
<line class="st2" x1="270" y1="250" x2="270" y2="290"/>
<line class="st2" x1="270" y1="250" x2="290" y2="250"/>
<line class="st2" x1="272" y1="210" x2="290" y2="210"/>
<line class="st2" x1="272" y1="210" x2="272" y2="218"/>
<path class="st3" d="M264,218h16l-8,8L264,218"/>
<line class="st2" x1="250" y1="190" x2="250" y2="260"/>
<line class="st2" x1="240" y1="260" x2="250" y2="260"/>
<line class="st2" x1="240" y1="180" x2="240" y2="250"/>
<line class="st2" x1="400" y1="60" x2="400" y2="60"/>
<line class="st2" x1="400" y1="60" x2="400" y2="68"/>
<path class="st3" d="M392,68h16l-8,8L392,68"/>
<line class="st2" x1="240" y1="60" x2="310" y2="60"/>
<line class="st2" x1="240" y1="60" x2="240" y2="160"/>
<line class="st2" x1="250" y1="270" x2="250" y2="380"/>
<line class="st2" x1="240" y1="270" x2="250" y2="270"/>
<line class="st2" x1="240" y1="280" x2="240" y2="380"/>
<line class="st2" x1="260" y1="240" x2="260" y2="360"/>
<line class="st2" x1="260" y1="240" x2="290" y2="240"/>
<line class="st2" x1="260" y1="360" x2="380" y2="360"/>
<line class="st2" x1="330" y1="290" x2="380" y2="290"/>
<line class="st2" x1="300" y1="290" x2="320" y2="290"/>
<line class="st2" x1="280" y1="290" x2="310" y2="290"/>
<line class="st2" x1="320" y1="290" x2="316" y2="290"/>
<line class="st2" x1="316" y1="280" x2="316" y2="300"/>
<line class="st2" x1="322" y1="285" x2="322" y2="295"/>
<line class="st2" x1="328" y1="280" x2="328" y2="300"/>
<line class="st2" x1="334" y1="285" x2="334" y2="295"/>
<line class="st2" x1="334" y1="290" x2="330" y2="290"/>
<text transform="matrix(1 0 0 1 314.1572 278)" class="st0 st5">+9V</text>
<line class="st2" x1="380" y1="290" x2="380" y2="312"/>
<line class="st2" x1="380" y1="338" x2="380" y2="360"/>
<ellipse class="st4" cx="380" cy="325" rx="12" ry="12"/>
<text transform="matrix(1 0 0 1 375.002 325)" class="st0 st5">M</text>
<line class="st2" x1="260" y1="130" x2="260" y2="230"/>
<line class="st2" x1="260" y1="130" x2="450" y2="130"/>
<line class="st2" x1="450" y1="130" x2="450" y2="180"/>
<line class="st2" x1="260" y1="230" x2="290" y2="230"/>
<line class="st2" x1="290" y1="210" x2="290" y2="220"/>
<line class="st2" x1="310" y1="60" x2="335" y2="60"/>
<line class="st2" x1="375" y1="60" x2="400" y2="60"/>
<line class="st2" x1="335" y1="60" x2="341" y2="60"/>
<line class="st2" x1="341" y1="60" x2="341" y2="66"/>
<line class="st2" x1="369" y1="60" x2="375" y2="60"/>
<line class="st2" x1="369" y1="60" x2="369" y2="66"/>
<path class="st3" d="M355,60c-11,0-20,9-20,20h40C375,69,366,60,355,60"/>
<text transform="matrix(1 0 0 1 346.1523 160)" class="st0 st1">L293DNE</text>
<rect x="320" y="170" class="st4" width="100" height="90"/>
<line class="st2" x1="290" y1="180" x2="320" y2="180"/>
<text transform="matrix(1 0 0 1 324 180)" class="st0 st1">1,2EN</text>
<line class="st2" x1="420" y1="180" x2="450" y2="180"/>
<text transform="matrix(1 0 0 1 386.6577 180)" class="st0 st1">VCC1</text>
<text transform="matrix(1 0 0 1 324 190)" class="st0 st1">1A</text>
<line class="st2" x1="420" y1="190" x2="450" y2="190"/>
<text transform="matrix(1 0 0 1 402.5454 190)" class="st0 st1">4A</text>
<line class="st2" x1="290" y1="200" x2="320" y2="200"/>
<text transform="matrix(1 0 0 1 324 200)" class="st0 st1">1Y</text>
<line class="st2" x1="420" y1="200" x2="450" y2="200"/>
<text transform="matrix(1 0 0 1 402.5454 200)" class="st0 st1">4Y</text>
<line class="st2" x1="290" y1="210" x2="320" y2="210"/>
<text transform="matrix(1 0 0 1 324 210)" class="st0 st1">GND</text>
<line class="st2" x1="420" y1="210" x2="450" y2="210"/>
<text transform="matrix(1 0 0 1 391.5562 210)" class="st0 st1">GND</text>
<line class="st2" x1="290" y1="220" x2="320" y2="220"/>
<text transform="matrix(1 0 0 1 324 220)" class="st0 st1">GND</text>
<line class="st2" x1="420" y1="220" x2="450" y2="220"/>
<text transform="matrix(1 0 0 1 391.5562 220)" class="st0 st1">GND</text>
<line class="st2" x1="290" y1="230" x2="320" y2="230"/>
<text transform="matrix(1 0 0 1 324 230)" class="st0 st1">2Y</text>
<line class="st2" x1="420" y1="230" x2="450" y2="230"/>
<text transform="matrix(1 0 0 1 402.5454 230)" class="st0 st1">3Y</text>
<line class="st2" x1="290" y1="240" x2="320" y2="240"/>
<text transform="matrix(1 0 0 1 324 240)" class="st0 st1">2A</text>
<line class="st2" x1="420" y1="240" x2="450" y2="240"/>
<text transform="matrix(1 0 0 1 402.5454 240)" class="st0 st1">3A</text>
<line class="st2" x1="290" y1="250" x2="320" y2="250"/>
<text transform="matrix(1 0 0 1 324 250)" class="st0 st1">VCC2</text>
<line class="st2" x1="420" y1="250" x2="450" y2="250"/>
<text transform="matrix(1 0 0 1 385.4277 250)" class="st0 st1">3,4EN</text>
<line class="st2" x1="30" y1="250" x2="50" y2="250"/>
<line class="st2" x1="180" y1="160" x2="240" y2="160"/>
<line class="st2" x1="180" y1="250" x2="240" y2="250"/>
<line class="st2" x1="180" y1="260" x2="240" y2="260"/>
<line class="st2" x1="180" y1="270" x2="240" y2="270"/>
<line class="st2" x1="180" y1="280" x2="240" y2="280"/>
<rect x="60" y="115" class="st4" width="120" height="195"/>
<text transform="matrix(1 0 0 1 96 145)" class="st0 st1">ARDUINO</text>
<text transform="matrix(1 0 0 1 103 155)" class="st0 st1">UNO r3</text>
<line class="st2" x1="50" y1="170" x2="60" y2="170"/>
<line class="st2" x1="50" y1="180" x2="60" y2="180"/>
<line class="st2" x1="50" y1="190" x2="60" y2="190"/>
<line class="st2" x1="50" y1="200" x2="60" y2="200"/>
<line class="st2" x1="50" y1="210" x2="60" y2="210"/>
<line class="st2" x1="50" y1="220" x2="60" y2="220"/>
<line class="st2" x1="50" y1="230" x2="60" y2="230"/>
<line class="st2" x1="50" y1="250" x2="60" y2="250"/>
<line class="st2" x1="50" y1="260" x2="60" y2="260"/>
<line class="st2" x1="50" y1="270" x2="60" y2="270"/>
<line class="st2" x1="50" y1="280" x2="60" y2="280"/>
<line class="st2" x1="50" y1="290" x2="60" y2="290"/>
<line class="st2" x1="50" y1="300" x2="60" y2="300"/>
<line class="st2" x1="180" y1="140" x2="190" y2="140"/>
<line class="st2" x1="180" y1="150" x2="190" y2="150"/>
<line class="st2" x1="180" y1="160" x2="190" y2="160"/>
<line class="st2" x1="180" y1="170" x2="190" y2="170"/>
<line class="st2" x1="180" y1="180" x2="190" y2="180"/>
<line class="st2" x1="180" y1="190" x2="190" y2="190"/>
<line class="st2" x1="180" y1="200" x2="190" y2="200"/>
<line class="st2" x1="180" y1="210" x2="190" y2="210"/>
<line class="st2" x1="180" y1="230" x2="190" y2="230"/>
<line class="st2" x1="180" y1="240" x2="190" y2="240"/>
<line class="st2" x1="180" y1="250" x2="190" y2="250"/>
<line class="st2" x1="180" y1="260" x2="190" y2="260"/>
<line class="st2" x1="180" y1="270" x2="190" y2="270"/>
<line class="st2" x1="180" y1="280" x2="190" y2="280"/>
<line class="st2" x1="180" y1="290" x2="190" y2="290"/>
<line class="st2" x1="180" y1="300" x2="190" y2="300"/>
<text transform="matrix(1 0 0 1 64 170)" class="st0 st1">IOREF</text>
<text transform="matrix(1 0 0 1 64 180)" class="st0 st1">RESET</text>
<text transform="matrix(1 0 0 1 64 190)" class="st0 st1">3.3V</text>
<text transform="matrix(1 0 0 1 64 200)" class="st0 st1">5V</text>
<text transform="matrix(1 0 0 1 64 210)" class="st0 st1">GND</text>
<text transform="matrix(1 0 0 1 64 220)" class="st0 st1">GND</text>
<text transform="matrix(1 0 0 1 64 230)" class="st0 st1">Vin</text>
<text transform="matrix(1 0 0 1 64 250)" class="st0 st1">A0</text>
<text transform="matrix(1 0 0 1 64 260)" class="st0 st1">A1</text>
<text transform="matrix(1 0 0 1 64 270)" class="st0 st1">A2</text>
<text transform="matrix(1 0 0 1 64 280)" class="st0 st1">A3</text>
<text transform="matrix(1 0 0 1 64 290)" class="st0 st1">A4</text>
<text transform="matrix(1 0 0 1 64 300)" class="st0 st1">A5</text>
<text transform="matrix(1 0 0 1 146.6631 140)" class="st0 st1">AREF</text>
<text transform="matrix(1 0 0 1 151.5562 150)" class="st0 st1">GND</text>
<text transform="matrix(1 0 0 1 155.8208 160)" class="st0 st1">D13</text>
<text transform="matrix(1 0 0 1 155.8208 170)" class="st0 st1">D12</text>
<text transform="matrix(1 0 0 1 126.6987 180)" class="st0 st1">PWM D11</text>
<text transform="matrix(1 0 0 1 125.8823 190)" class="st0 st1">PWM D10</text>
<text transform="matrix(1 0 0 1 132 200)" class="st0 st1">PWM D9</text>
<text transform="matrix(1 0 0 1 161.9385 210)" class="st0 st1">D8</text>
<text transform="matrix(1 0 0 1 161.9385 230)" class="st0 st1">D7</text>
<text transform="matrix(1 0 0 1 132 240)" class="st0 st1">PWM D6</text>
<text transform="matrix(1 0 0 1 132 250)" class="st0 st1">PWM D5</text>
<text transform="matrix(1 0 0 1 161.9385 260)" class="st0 st1">D4</text>
<text transform="matrix(1 0 0 1 132 270)" class="st0 st1">PWM D3</text>
<text transform="matrix(1 0 0 1 161.9385 280)" class="st0 st1">D2</text>
<text transform="matrix(1 0 0 1 144.8262 290)" class="st0 st1">TX D1</text>
<text transform="matrix(1 0 0 1 143.6016 300)" class="st0 st1">RX D0</text>
<path class="st3" d="M120,130c2,9,15,9,15,0S122,121,120,130"/>
<path class="st3" d="M120,130c-2-9-15-9-15,0S118,139,120,130"/>
<line class="st2" x1="126" y1="130" x2="130" y2="130"/>
<line class="st2" x1="128" y1="132" x2="128" y2="128"/>
<line class="st2" x1="114" y1="130" x2="110" y2="130"/>
<ellipse class="st6" cx="230" cy="390" rx="2" ry="2"/>
<ellipse class="st6" cx="290" cy="210" rx="2" ry="2"/>
<ellipse class="st6" cx="260" cy="190" rx="2" ry="2"/>
<line class="st2" x1="290" y1="188" x2="320" y2="188"/>
</svg>
